<?xml version="1.0" encoding="utf-8"?>
<!-- Generator: Adobe Illustrator 25.3.1, SVG Export Plug-In . SVG Version: 6.00 Build 0)  -->
<svg version="1.1" id="Шар_1" xmlns="http://www.w3.org/2000/svg" xmlns:xlink="http://www.w3.org/1999/xlink" x="0px" y="0px"
	 viewBox="0 0 370.82 112.25" style="enable-background:new 0 0 370.82 112.25;" xml:space="preserve">
<style type="text/css">
	.st0{fill:#EB3323;}
</style>
<g id="Слой_2">
	<g transform="matrix(1.5932082,0,0,1.5932292,-43.296468,-0.35056106)">
		<path class="st0" d="M134.38,8.03v23.34h-10.21l-6.01-17.79h-0.35v17.79h-6.18V14.1h-3.33V8.03h11.73c1.11,0,2.04,0.64,2.39,1.69
			l5.43,16.1h0.35V8.03H134.38"/>
		<path class="st0" d="M155.57,19.64c0-3.15-2.39-5.54-5.43-5.54c-3.15,0-5.54,2.39-5.54,5.54c0,3.21,2.39,5.66,5.54,5.66
			C153.17,25.3,155.57,22.85,155.57,19.64L155.57,19.64z M137.83,19.64c0-6.77,5.37-11.96,12.31-11.96
			c6.89,0,12.19,5.19,12.19,11.96c0,6.83-5.31,12.08-12.19,12.08C143.2,31.72,137.83,26.47,137.83,19.64"/>
		<path class="st0" d="M162.48,8.03h7.12l6.01,17.39h0.35l6.07-17.39h6.94l-8.52,23.34h-9.51L162.48,8.03"/>
		<path class="st0" d="M201.79,21.86l-2.68-7.82h-0.35l-2.74,7.82H201.79z M203.6,27.11h-9.45l-1.52,4.26h-6.89l9.1-23.34h8.34
			l9.04,23.34h-7.18L203.6,27.11"/>
		<path class="st0" d="M126.28,46.63c0-1.28-0.93-2.1-2.33-2.1h-5.54v4.2h5.54C125.34,48.73,126.28,47.91,126.28,46.63z
			 M133.04,46.51c0,4.73-3.44,7.7-8.63,7.7h-6.01v7.93h-6.65V44.88h-3.32v-6.07h15.98C129.6,38.81,133.04,41.79,133.04,46.51"/>
		<path class="st0" d="M153.01,50.42c0-3.15-2.39-5.54-5.42-5.54c-3.15,0-5.54,2.39-5.54,5.54c0,3.21,2.39,5.66,5.54,5.66
			C150.62,56.08,153.01,53.63,153.01,50.42L153.01,50.42z M135.28,50.42c0-6.77,5.37-11.96,12.31-11.96
			c6.88,0,12.19,5.19,12.19,11.96c0,6.82-5.31,12.07-12.19,12.07C140.65,62.5,135.28,57.25,135.28,50.42"/>
		<path class="st0" d="M162.06,54.8h6.88c0.58,1.4,2.04,2.04,4.37,2.04c2.51,0,3.85-0.7,3.85-1.69c0-1.28-1.17-1.69-5.13-2.1
			c-6.07-0.64-9.39-3.44-9.39-7.47c0-4.26,4.14-7.12,10.27-7.12c6.3,0,10.38,2.97,11.08,7.7h-7.47c-0.41-1.23-1.69-1.92-3.67-1.92
			c-2.51,0-3.44,0.64-3.44,1.57c0,0.99,1.17,1.4,4.43,1.69c6.59,0.64,10.09,3.21,10.09,7.58c0,4.61-4.43,7.41-10.85,7.41
			C167.13,62.5,162.93,59.64,162.06,54.8"/>
		<path class="st0" d="M209.44,38.81v23.33h-6.65v-8.52h-8.28v8.52h-6.65V38.81h6.65v8.52h8.28v-8.52H209.44"/>
		<path class="st0" d="M235.3,45.35h-7.88v16.8h-6.65v-16.8h-7.88v-6.53h22.4V45.35"/>
		<path class="st0" d="M249.48,52.64l-2.68-7.82h-0.35l-2.74,7.82H249.48z M251.29,57.89h-9.45l-1.52,4.26h-6.88l9.1-23.33h8.34
			l9.04,23.33h-7.17L251.29,57.89"/>
	</g>
	<path class="st0" d="M66,91.11V67.76H46.21v23.35H31.06l18.37,18.38c3.69,3.68,9.67,3.68,13.36,0l18.38-18.38H66z M21.13,81.21
		V31.05L2.77,49.42c-3.69,3.69-3.69,9.67,0,13.36L21.13,81.21z M46.19,21.11v23.34H66V21.11h15.17L62.77,2.77
		c-3.69-3.69-9.67-3.69-13.36,0L31.06,21.11H46.19z M109.43,49.39L91.07,31.05v50.11l18.38-18.38c3.71-3.65,3.75-9.62,0.1-13.32
		c-0.01-0.01-0.01-0.01-0.02-0.02c0,0,0,0-0.08,0L109.43,49.39z"/>
</g>
</svg>
